<svg width="28" height="28" viewBox="0 0 28 28" fill="none" xmlns="http://www.w3.org/2000/svg">
<path fill-rule="evenodd" clip-rule="evenodd" d="M4.13804 5.84414C4.03646 5.81464 3.88863 5.8042 3.1496 5.8042H2.36905C1.78027 5.8042 1.30298 5.3269 1.30298 4.73813C1.30298 4.14936 1.78027 3.67206 2.36905 3.67206H3.1496L3.26972 3.67197C3.8174 3.67132 4.29925 3.67074 4.73261 3.79658C5.5975 4.04773 6.31286 4.65827 6.69677 5.47297C6.78006 5.64972 6.84138 5.83917 6.89106 6.04111H21.451L21.4821 6.0411C21.9923 6.04109 22.4212 6.04109 22.7713 6.06171C23.1326 6.083 23.4895 6.12928 23.8357 6.25876C25.0156 6.70007 25.8594 7.75189 26.0342 8.9995C26.0855 9.36555 26.0533 9.72391 25.9957 10.0813C25.9399 10.4275 25.8468 10.8462 25.7361 11.3442L25.7294 11.3746L24.9787 14.7526L24.9492 14.8855C24.783 15.6359 24.6553 16.212 24.3963 16.6987C23.8775 17.6735 22.9811 18.3925 21.917 18.6875C21.3857 18.8348 20.7956 18.8345 20.027 18.834L19.8909 18.8339H11.2378L11.0929 18.834C10.2804 18.8345 9.65741 18.8349 9.10374 18.6742C7.99407 18.3519 7.07625 17.5686 6.58368 16.5233C6.33792 16.0018 6.24045 15.3865 6.11332 14.584L6.09062 14.4409L4.9628 7.35174C4.84669 6.62188 4.81315 6.47754 4.76806 6.38185C4.64492 6.12053 4.41546 5.9247 4.13804 5.84414ZM7.25244 8.17324L8.19628 14.1059C8.35739 15.1186 8.41343 15.4044 8.5124 15.6144C8.74419 16.1063 9.17611 16.475 9.69831 16.6266C9.92125 16.6913 10.2123 16.7018 11.2378 16.7018H19.8909C20.8593 16.7018 21.1332 16.6923 21.3474 16.6329C21.8482 16.4941 22.27 16.1557 22.5141 15.697C22.6186 15.5007 22.6873 15.2354 22.8973 14.2901L23.648 10.912C23.7672 10.3757 23.8461 10.0187 23.8907 9.74199C23.9346 9.46945 23.9309 9.35371 23.9227 9.29539C23.8564 8.82216 23.5364 8.42319 23.0888 8.2558C23.0336 8.23517 22.9215 8.20639 22.6459 8.19016C22.3661 8.17367 22.0004 8.17324 21.451 8.17324H7.25244ZM8.29164 22.8021C8.29164 21.6572 9.21971 20.7292 10.3645 20.7292C11.5094 20.7292 12.4375 21.6572 12.4375 22.8021C12.4375 23.9469 11.5094 24.875 10.3645 24.875C9.21971 24.875 8.29164 23.9469 8.29164 22.8021ZM20.433 20.7292C19.2881 20.7292 18.3601 21.6572 18.3601 22.8021C18.3601 23.9469 19.2881 24.875 20.433 24.875C21.5778 24.875 22.5059 23.9469 22.5059 22.8021C22.5059 21.6572 21.5778 20.7292 20.433 20.7292Z" fill="white"/>
</svg>
