<svg width="24" height="24" viewBox="0 0 24 24" fill="none" xmlns="http://www.w3.org/2000/svg">
<path fill-rule="evenodd" clip-rule="evenodd" d="M16.4 3.0999L16.3667 3.0999C15.9752 3.09988 15.6287 3.09987 15.3415 3.12332C15.0358 3.14831 14.7189 3.20432 14.4104 3.36148C13.9589 3.59158 13.5917 3.95873 13.3616 4.41032C13.2044 4.71878 13.1484 5.03563 13.1234 5.34141C13.1 5.62856 13.1 5.97504 13.1 6.36653L13.1 6.3999L13.1 17.5999L13.1 17.6332C13.1 18.0247 13.1 18.3712 13.1234 18.6584C13.1484 18.9642 13.2044 19.281 13.3616 19.5895C13.5917 20.0411 13.9589 20.4082 14.4104 20.6383C14.7189 20.7955 15.0357 20.8515 15.3415 20.8765C15.6287 20.8999 15.9751 20.8999 16.3666 20.8999L16.4 20.8999L17.6 20.8999L17.6334 20.8999C18.0248 20.8999 18.3714 20.8999 18.6585 20.8765C18.9643 20.8515 19.2811 20.7955 19.5896 20.6383C20.0412 20.4082 20.4083 20.0411 20.6384 19.5895C20.7956 19.281 20.8516 18.9642 20.8766 18.6584C20.9001 18.3712 20.9 18.0248 20.9 17.6333L20.9 17.5999L20.9 6.3999L20.9 6.36656C20.9 5.97509 20.9001 5.62855 20.8766 5.34141C20.8516 5.03563 20.7956 4.71878 20.6384 4.41032C20.4083 3.95873 20.0412 3.59158 19.5896 3.36149C19.2811 3.20432 18.9643 3.14831 18.6585 3.12333C18.3714 3.09987 18.0249 3.09988 17.6335 3.0999L17.6 3.0999L16.4 3.0999ZM15.2276 4.9653C15.24 4.95897 15.2936 4.93324 15.4881 4.91735C15.6931 4.9006 15.9651 4.8999 16.4 4.8999L17.6 4.8999C18.0349 4.8999 18.307 4.9006 18.5119 4.91735C18.7064 4.93324 18.76 4.95897 18.7724 4.9653C18.8853 5.02282 18.9771 5.11461 19.0346 5.22751C19.041 5.23992 19.0667 5.29352 19.0826 5.48799C19.0993 5.69297 19.1 5.96501 19.1 6.3999L19.1 17.5999C19.1 18.0348 19.0993 18.3068 19.0826 18.5118C19.0667 18.7063 19.041 18.7599 19.0346 18.7723C18.9771 18.8852 18.8853 18.977 18.7724 19.0345C18.76 19.0408 18.7064 19.0666 18.5119 19.0825C18.307 19.0992 18.0349 19.0999 17.6 19.0999L16.4 19.0999C15.9651 19.0999 15.6931 19.0992 15.4881 19.0825C15.2936 19.0666 15.24 19.0408 15.2276 19.0345C15.1147 18.977 15.0229 18.8852 14.9654 18.7723C14.9591 18.7599 14.9334 18.7063 14.9175 18.5118C14.9007 18.3068 14.9 18.0348 14.9 17.5999L14.9 6.3999C14.9 5.96501 14.9007 5.69297 14.9175 5.48799C14.9334 5.29352 14.9591 5.23992 14.9654 5.22751C15.0229 5.11461 15.1147 5.02282 15.2276 4.9653ZM6.36669 13.0999L6.40002 13.0999L7.60002 13.0999L7.63336 13.0999C8.02486 13.0999 8.37136 13.0999 8.65851 13.1233C8.96429 13.1483 9.28115 13.2043 9.5896 13.3615C10.0412 13.5916 10.4083 13.9587 10.6384 14.4103C10.7956 14.7188 10.8516 15.0356 10.8766 15.3414C10.9001 15.6286 10.9 15.9751 10.9 16.3666L10.9 16.3999L10.9 17.5999L10.9 17.6332C10.9 18.0247 10.9001 18.3712 10.8766 18.6584C10.8516 18.9642 10.7956 19.281 10.6384 19.5895C10.4083 20.0411 10.0412 20.4082 9.5896 20.6383C9.28114 20.7955 8.96429 20.8515 8.65851 20.8765C8.37137 20.8999 8.0249 20.8999 7.63342 20.8999L7.60002 20.8999L6.40002 20.8999L6.36669 20.8999C5.97521 20.8999 5.62867 20.8999 5.34154 20.8765C5.03575 20.8515 4.7189 20.7955 4.41044 20.6383C3.95886 20.4082 3.5917 20.0411 3.36161 19.5895C3.20444 19.281 3.14843 18.9642 3.12345 18.6584C3.09999 18.3712 3.1 18.0247 3.10002 17.6332L3.10002 17.5999L3.10002 16.3999L3.10002 16.3666C3.1 15.9751 3.09999 15.6286 3.12345 15.3414C3.14843 15.0356 3.20444 14.7188 3.36161 14.4103C3.5917 13.9587 3.95886 13.5916 4.41045 13.3615C4.7189 13.2043 5.03575 13.1483 5.34154 13.1233C5.62869 13.0999 5.97518 13.0999 6.36669 13.0999ZM5.48811 14.9173C5.29364 14.9332 5.24004 14.959 5.22763 14.9653C5.11473 15.0228 5.02294 15.1146 4.96542 15.2275C4.95909 15.2399 4.93336 15.2935 4.91747 15.488C4.90072 15.693 4.90002 15.965 4.90002 16.3999L4.90002 17.5999C4.90002 18.0348 4.90072 18.3068 4.91747 18.5118C4.93336 18.7063 4.95909 18.7599 4.96542 18.7723C5.02294 18.8852 5.11473 18.977 5.22763 19.0345C5.24004 19.0408 5.29364 19.0666 5.48811 19.0825C5.69309 19.0992 5.96513 19.0999 6.40002 19.0999L7.60002 19.0999C8.03491 19.0999 8.30695 19.0992 8.51193 19.0825C8.7064 19.0666 8.76 19.0408 8.77242 19.0345C8.88531 18.977 8.9771 18.8852 9.03463 18.7723C9.04095 18.7599 9.06669 18.7063 9.08258 18.5118C9.09932 18.3068 9.10002 18.0348 9.10002 17.5999L9.10002 16.3999C9.10002 15.965 9.09932 15.693 9.08258 15.488C9.06669 15.2935 9.04095 15.2399 9.03463 15.2275C8.9771 15.1146 8.88531 15.0228 8.77242 14.9653C8.76 14.959 8.7064 14.9332 8.51193 14.9173C8.30695 14.9006 8.03491 14.8999 7.60002 14.8999L6.40002 14.8999C5.96513 14.8999 5.69309 14.9006 5.48811 14.9173ZM6.40002 3.0999L6.36669 3.0999C5.97523 3.09988 5.62867 3.09987 5.34154 3.12332C5.03575 3.14831 4.7189 3.20432 4.41045 3.36148C3.95886 3.59158 3.5917 3.95873 3.36161 4.41032C3.20444 4.71878 3.14843 5.03563 3.12345 5.34141C3.09999 5.62857 3.1 5.97506 3.10002 6.36657L3.10002 6.3999L3.10002 7.5999L3.10002 7.63323C3.1 8.02474 3.09999 8.37123 3.12345 8.65838C3.14843 8.96417 3.20444 9.28102 3.36161 9.58948C3.5917 10.0411 3.95886 10.4082 4.41045 10.6383C4.7189 10.7955 5.03575 10.8515 5.34154 10.8765C5.62868 10.8999 5.97515 10.8999 6.36663 10.8999L6.40002 10.8999L7.60002 10.8999L7.63336 10.8999C8.02484 10.8999 8.37137 10.8999 8.65851 10.8765C8.96429 10.8515 9.28115 10.7955 9.5896 10.6383C10.0412 10.4082 10.4083 10.0411 10.6384 9.58948C10.7956 9.28102 10.8516 8.96417 10.8766 8.65839C10.9001 8.37123 10.9 8.02474 10.9 7.63324L10.9 7.5999L10.9 6.3999L10.9 6.36656C10.9 5.97506 10.9001 5.62857 10.8766 5.34141C10.8516 5.03563 10.7956 4.71878 10.6384 4.41032C10.4083 3.95873 10.0412 3.59158 9.5896 3.36149C9.28115 3.20432 8.9643 3.14831 8.65851 3.12333C8.37138 3.09987 8.02492 3.09988 7.63346 3.0999L7.60002 3.0999L6.40002 3.0999ZM5.22763 4.96529C5.24004 4.95897 5.29364 4.93323 5.48811 4.91735C5.69309 4.9006 5.96513 4.8999 6.40002 4.8999L7.60002 4.8999C8.03491 4.8999 8.30695 4.9006 8.51193 4.91735C8.7064 4.93324 8.76001 4.95897 8.77242 4.9653C8.88531 5.02282 8.9771 5.11461 9.03463 5.2275C9.04095 5.23992 9.06669 5.29352 9.08258 5.48799C9.09932 5.69297 9.10002 5.96501 9.10002 6.3999L9.10002 7.5999C9.10002 8.03479 9.09932 8.30683 9.08258 8.51181C9.06669 8.70628 9.04095 8.75988 9.03463 8.77229C8.9771 8.88519 8.88531 8.97698 8.77242 9.0345C8.76 9.04083 8.7064 9.06656 8.51193 9.08245C8.30695 9.0992 8.03491 9.0999 7.60002 9.0999L6.40002 9.0999C5.96513 9.0999 5.69309 9.0992 5.48811 9.08245C5.29364 9.06656 5.24004 9.04083 5.22763 9.0345C5.11473 8.97698 5.02294 8.88519 4.96542 8.77229C4.95909 8.75988 4.93336 8.70628 4.91747 8.51181C4.90072 8.30683 4.90002 8.03479 4.90002 7.5999L4.90002 6.3999C4.90002 5.96501 4.90072 5.69297 4.91747 5.48799C4.93336 5.29352 4.95909 5.23992 4.96542 5.2275C5.02294 5.11461 5.11473 5.02282 5.22763 4.96529Z" fill="#565656"/>
</svg>
