<svg width="25" height="25" viewBox="0 0 25 25" fill="none" xmlns="http://www.w3.org/2000/svg">
<path d="M3.12484 18.75H1.0415V3.125H14.5832V17.7083M14.5832 18.75H9.37484M14.5832 8.33333H19.7915L23.9582 13.5417V18.75H20.8332M6.24984 21.875C7.97573 21.875 9.37484 20.4759 9.37484 18.75C9.37484 17.0241 7.97573 15.625 6.24984 15.625C4.52395 15.625 3.12484 17.0241 3.12484 18.75C3.12484 20.4759 4.52395 21.875 6.24984 21.875ZM17.7082 21.875C19.4341 21.875 20.8332 20.4759 20.8332 18.75C20.8332 17.0241 19.4341 15.625 17.7082 15.625C15.9823 15.625 14.5832 17.0241 14.5832 18.75C14.5832 20.4759 15.9823 21.875 17.7082 21.875Z" stroke="#2D2D2D" stroke-width="1.5" stroke-linejoin="round"/>
</svg>
