<svg width="24" height="24" viewBox="0 0 24 24" fill="none" xmlns="http://www.w3.org/2000/svg">
<g opacity="0.8">
<path d="M19.7727 5.25C20.4505 5.25 21 5.75368 21 6.375C21 6.94454 20.5383 7.41524 19.9393 7.48973L19.7727 7.5H4.22727C3.54947 7.5 3 6.99632 3 6.375C3 5.80546 3.46171 5.33476 4.06074 5.26027L4.22727 5.25H19.7727Z" fill="#2D2D2D"/>
<path d="M19.7727 11.25C20.4505 11.25 21 11.7537 21 12.375C21 12.9445 20.5383 13.4152 19.9393 13.4897L19.7727 13.5H4.22727C3.54947 13.5 3 12.9963 3 12.375C3 11.8055 3.46171 11.3348 4.06074 11.2603L4.22727 11.25H19.7727Z" fill="#2D2D2D"/>
<path d="M14.1818 17.25C14.6337 17.25 15 17.7537 15 18.375C15 18.9445 14.6922 19.4152 14.2928 19.4897L14.1818 19.5H3.81818C3.36631 19.5 3 18.9963 3 18.375C3 17.8055 3.3078 17.3348 3.70716 17.2603L3.81818 17.25H14.1818Z" fill="#2D2D2D"/>
</g>
</svg>
