<svg width="18" height="18" viewBox="0 0 18 18" fill="none" xmlns="http://www.w3.org/2000/svg">
<path d="M13.8041 15.4178L15.6744 13.5457C15.9029 13.3172 16.0312 13.0113 16.0312 12.6879C16.0312 12.3645 15.9047 12.0586 15.6744 11.8301L13.6617 9.81387C13.4332 9.58535 13.1256 9.45703 12.8021 9.45703C12.477 9.45703 12.1729 9.58359 11.9426 9.81387L10.3658 11.3889C9.52983 11.0301 8.77026 10.5145 8.12812 9.87012C7.47949 9.225 6.96797 8.4709 6.60586 7.63418L8.18262 6.05918C8.41113 5.83066 8.53945 5.5248 8.53945 5.20137C8.54004 5.04183 8.50879 4.88379 8.44751 4.73649C8.38624 4.58919 8.29618 4.4556 8.18262 4.34355L6.16992 2.32559C5.94141 2.09707 5.63379 1.96875 5.31035 1.96875C4.98516 1.96875 4.68106 2.09531 4.45078 2.32559L2.58047 4.1959C2.19023 4.58613 1.96699 5.12402 1.96699 5.67598C1.96699 5.79023 1.97578 5.90098 1.99512 6.01348C2.37832 8.34082 3.61758 10.6506 5.48086 12.5156C7.34766 14.3789 9.65742 15.6164 11.9865 16.0031C12.6475 16.1139 13.3277 15.8924 13.8041 15.4178ZM12.1957 14.7568C10.1232 14.4141 8.05605 13.2996 6.37734 11.6209C4.69863 9.94219 3.58418 7.87676 3.24141 5.8043C3.19746 5.54414 3.28535 5.27695 3.47344 5.08711L5.31035 3.25019L7.25977 5.19785L5.15039 7.30371L5.13457 7.31953L5.27519 7.69922C5.69847 8.85046 6.36701 9.89589 7.23449 10.7631C8.10197 11.6302 9.14763 12.2984 10.299 12.7213L10.6787 12.8619L12.8004 10.7385L14.7498 12.6861L12.9129 14.523C12.723 14.7129 12.4559 14.8008 12.1957 14.7568Z" fill="white"/>
</svg>
